<mxfile host="app.diagrams.net" modified="2024-03-11T19:00:30.146Z" agent="Mozilla/5.0 (Windows NT 10.0; Win64; x64) AppleWebKit/537.36 (KHTML, like Gecko) Chrome/121.0.0.0 Safari/537.36" etag="_O3vaEX-smelkAT7C9Ps" version="24.0.2" type="github">
  <diagram name="Page-1" id="C_xr2xplUemi0_1QrnJw">
    <mxGraphModel dx="712" dy="737" grid="0" gridSize="10" guides="1" tooltips="1" connect="1" arrows="1" fold="1" page="1" pageScale="1" pageWidth="850" pageHeight="1100" math="0" shadow="0">
      <root>
        <mxCell id="0" />
        <mxCell id="1" parent="0" />
        <mxCell id="h9bticIydOetJtZIBr76-1" value="&amp;nbsp; &amp;nbsp; &amp;nbsp; &amp;nbsp; &amp;nbsp; &amp;nbsp; &amp;nbsp; &amp;nbsp; &amp;nbsp; &amp;nbsp; &amp;nbsp; &amp;nbsp; &amp;nbsp; &amp;nbsp; &amp;nbsp; &amp;nbsp; &amp;nbsp; &amp;nbsp; &amp;nbsp; &amp;nbsp; &amp;nbsp; &amp;nbsp; &amp;nbsp; &amp;nbsp; &amp;nbsp; &amp;nbsp; &amp;nbsp; &amp;nbsp; &amp;nbsp; &amp;nbsp; &amp;nbsp; &amp;nbsp; &amp;nbsp; &amp;nbsp; &amp;nbsp; &amp;nbsp; &amp;nbsp; &amp;nbsp; &amp;nbsp; &amp;nbsp; &amp;nbsp; &amp;nbsp; &amp;nbsp; &amp;nbsp; &amp;nbsp; &amp;nbsp; &amp;nbsp; &amp;nbsp; &amp;nbsp;CheckerBoard Window&amp;nbsp; &amp;nbsp; &amp;nbsp; &amp;nbsp; &amp;nbsp; &amp;nbsp; &amp;nbsp; &amp;nbsp; &amp;nbsp; &amp;nbsp; &amp;nbsp; &amp;nbsp; &amp;nbsp; &amp;nbsp; &amp;nbsp; &amp;nbsp; &amp;nbsp; &amp;nbsp; &amp;nbsp; &amp;nbsp; &amp;nbsp; &amp;nbsp; &amp;nbsp; &amp;nbsp; &amp;nbsp; &amp;nbsp; &amp;nbsp; &amp;nbsp; &amp;nbsp; &amp;nbsp; &amp;nbsp; &amp;nbsp; &amp;nbsp; &amp;nbsp; &amp;nbsp; &amp;nbsp; &amp;nbsp; &amp;nbsp; &amp;nbsp; &amp;nbsp; &amp;nbsp;--&amp;nbsp; &amp;nbsp;|_|&amp;nbsp; &amp;nbsp;X" style="swimlane;whiteSpace=wrap;html=1;" vertex="1" parent="1">
          <mxGeometry x="25" y="24" width="800" height="440" as="geometry" />
        </mxCell>
        <mxCell id="h9bticIydOetJtZIBr76-2" value="&amp;nbsp; &amp;nbsp; &amp;nbsp; Select Zone&amp;nbsp; &amp;nbsp; &amp;nbsp;V" style="rounded=0;whiteSpace=wrap;html=1;" vertex="1" parent="h9bticIydOetJtZIBr76-1">
          <mxGeometry x="340" y="40" width="120" height="30" as="geometry" />
        </mxCell>
        <mxCell id="h9bticIydOetJtZIBr76-8" value="" style="swimlane;startSize=0;strokeColor=#999999;dashed=1;dashPattern=12 12;" vertex="1" parent="h9bticIydOetJtZIBr76-1">
          <mxGeometry x="40" y="80" width="720" height="301" as="geometry" />
        </mxCell>
        <mxCell id="h9bticIydOetJtZIBr76-3" value="&amp;nbsp; |&lt;u&gt;Search&lt;/u&gt;______|&amp;nbsp; &amp;nbsp; &amp;nbsp; &amp;nbsp; &amp;nbsp; &amp;nbsp; &amp;nbsp; &amp;nbsp; &amp;nbsp; &amp;nbsp; &amp;nbsp; &amp;nbsp; &amp;nbsp; &amp;nbsp; &amp;nbsp; &amp;nbsp; &amp;nbsp; &amp;nbsp; &amp;nbsp; &amp;nbsp; &amp;nbsp; &amp;nbsp; &amp;nbsp; &amp;nbsp; &amp;nbsp; &amp;nbsp; &amp;nbsp; &amp;nbsp; &amp;nbsp; &amp;nbsp; &amp;nbsp; &amp;nbsp; &amp;nbsp; &amp;nbsp; &amp;nbsp; &amp;nbsp; &amp;nbsp; &amp;nbsp; &amp;nbsp; &amp;nbsp; &amp;nbsp; &amp;nbsp; &amp;nbsp; &amp;nbsp; &amp;nbsp; &amp;nbsp; &amp;nbsp; &amp;nbsp; &amp;nbsp; &amp;nbsp; &amp;nbsp; &amp;nbsp; &amp;nbsp; &amp;nbsp; &amp;nbsp; &amp;nbsp; &amp;nbsp; &amp;nbsp; &amp;nbsp; &amp;nbsp; &amp;nbsp; &amp;nbsp; &amp;nbsp; &amp;nbsp; &amp;nbsp; &amp;nbsp; &amp;nbsp; &amp;nbsp; &amp;nbsp; &amp;nbsp; &amp;nbsp; &amp;nbsp; &amp;nbsp; &amp;nbsp;Zone #" style="swimlane;fontStyle=0;childLayout=stackLayout;horizontal=1;startSize=30;horizontalStack=0;resizeParent=1;resizeParentMax=0;resizeLast=0;collapsible=1;marginBottom=0;whiteSpace=wrap;html=1;align=left;" vertex="1" parent="h9bticIydOetJtZIBr76-8">
          <mxGeometry x="45" y="20" width="630" height="120" as="geometry" />
        </mxCell>
        <mxCell id="h9bticIydOetJtZIBr76-4" value="RM #NUM&amp;nbsp; |&amp;nbsp; LAST CHECKED&amp;nbsp; |&amp;nbsp; NEEDS CHECKED&amp;nbsp; |&amp;nbsp; AVALIBILITY&amp;nbsp; |&amp;nbsp; COMMENTS" style="text;strokeColor=none;fillColor=none;align=left;verticalAlign=middle;spacingLeft=4;spacingRight=4;overflow=hidden;points=[[0,0.5],[1,0.5]];portConstraint=eastwest;rotatable=0;whiteSpace=wrap;html=1;" vertex="1" parent="h9bticIydOetJtZIBr76-3">
          <mxGeometry y="30" width="630" height="30" as="geometry" />
        </mxCell>
        <mxCell id="h9bticIydOetJtZIBr76-5" value="RM #NUM&amp;nbsp; |&amp;nbsp; LAST CHECKED&amp;nbsp; |&amp;nbsp; NEEDS CHECKED&amp;nbsp; |&amp;nbsp; AVALIBILITY&amp;nbsp; |&amp;nbsp; COMMENTS" style="text;strokeColor=none;fillColor=none;align=left;verticalAlign=middle;spacingLeft=4;spacingRight=4;overflow=hidden;points=[[0,0.5],[1,0.5]];portConstraint=eastwest;rotatable=0;whiteSpace=wrap;html=1;" vertex="1" parent="h9bticIydOetJtZIBr76-3">
          <mxGeometry y="60" width="630" height="30" as="geometry" />
        </mxCell>
        <mxCell id="h9bticIydOetJtZIBr76-6" value="RM #NUM&amp;nbsp; |&amp;nbsp; LAST CHECKED&amp;nbsp; |&amp;nbsp; NEEDS CHECKED&amp;nbsp; |&amp;nbsp; AVALIBILITY&amp;nbsp; |&amp;nbsp; COMMENTS" style="text;strokeColor=none;fillColor=none;align=left;verticalAlign=middle;spacingLeft=4;spacingRight=4;overflow=hidden;points=[[0,0.5],[1,0.5]];portConstraint=eastwest;rotatable=0;whiteSpace=wrap;html=1;" vertex="1" parent="h9bticIydOetJtZIBr76-3">
          <mxGeometry y="90" width="630" height="30" as="geometry" />
        </mxCell>
        <mxCell id="h9bticIydOetJtZIBr76-7" value="&lt;b&gt;&lt;font style=&quot;font-size: 24px;&quot;&gt;...&lt;/font&gt;&lt;/b&gt;" style="text;html=1;align=center;verticalAlign=middle;resizable=0;points=[];autosize=1;strokeColor=none;fillColor=none;" vertex="1" parent="h9bticIydOetJtZIBr76-8">
          <mxGeometry x="340" y="140" width="40" height="40" as="geometry" />
        </mxCell>
        <mxCell id="h9bticIydOetJtZIBr76-13" value="" style="triangle;whiteSpace=wrap;html=1;rotation=-90;fillColor=#000000;" vertex="1" parent="h9bticIydOetJtZIBr76-8">
          <mxGeometry x="695.75" y="8.5" width="10" height="12.25" as="geometry" />
        </mxCell>
        <mxCell id="h9bticIydOetJtZIBr76-9" value="Save" style="rounded=0;whiteSpace=wrap;html=1;" vertex="1" parent="h9bticIydOetJtZIBr76-1">
          <mxGeometry x="665" y="401" width="60" height="30" as="geometry" />
        </mxCell>
        <mxCell id="h9bticIydOetJtZIBr76-10" value="Quit" style="rounded=0;whiteSpace=wrap;html=1;" vertex="1" parent="h9bticIydOetJtZIBr76-1">
          <mxGeometry x="732" y="401" width="60" height="30" as="geometry" />
        </mxCell>
        <mxCell id="h9bticIydOetJtZIBr76-29" value="Reload" style="rounded=0;whiteSpace=wrap;html=1;" vertex="1" parent="h9bticIydOetJtZIBr76-1">
          <mxGeometry x="598" y="401" width="60" height="30" as="geometry" />
        </mxCell>
        <mxCell id="h9bticIydOetJtZIBr76-11" value="" style="rounded=0;whiteSpace=wrap;html=1;" vertex="1" parent="1">
          <mxGeometry x="759" y="126" width="14" height="262" as="geometry" />
        </mxCell>
        <mxCell id="h9bticIydOetJtZIBr76-12" value="" style="rounded=0;whiteSpace=wrap;html=1;fillColor=#6E6E6E;fontColor=#333333;strokeColor=#6E6E6E;" vertex="1" parent="1">
          <mxGeometry x="759" y="135" width="14" height="38" as="geometry" />
        </mxCell>
        <mxCell id="h9bticIydOetJtZIBr76-27" value="" style="triangle;whiteSpace=wrap;html=1;rotation=-90;fillColor=#000000;direction=west;" vertex="1" parent="1">
          <mxGeometry x="760.75" y="389" width="10" height="12.25" as="geometry" />
        </mxCell>
      </root>
    </mxGraphModel>
  </diagram>
</mxfile>
